<?xml version="1.0" encoding="utf-8"?>
<!-- Generator: Adobe Illustrator 19.2.0, SVG Export Plug-In . SVG Version: 6.00 Build 0)  -->
<svg version="1.1" id="Layer_1" xmlns:ev="http://www.w3.org/2001/xml-events"
	 xmlns="http://www.w3.org/2000/svg" xmlns:xlink="http://www.w3.org/1999/xlink" x="0px" y="0px" viewBox="0 0 1366 768"
	 style="enable-background:new 0 0 1366 768;" xml:space="preserve">
<style type="text/css">
	.st0{fill:#87CEFA;}
	.st1{fill:url(#SVGID_1_);}
	.st2{opacity:1.000000e-02;fill:#FFFFFF;enable-background:new    ;}
	.st3{font-family:'Verdana';}
	.st4{font-size:20px;}
</style>
<title>white gradient blue linear light sky blue misty rose 1366x768 #87cefa #ffe4e1 90°</title>
<desc>white gradient blue linear light sky blue misty rose 1366x768 #87cefa #ffe4e1 90°</desc>
<rect class="st0" width="1366" height="768"/>
<linearGradient id="SVGID_1_" gradientUnits="userSpaceOnUse" x1="203.3514" y1="664.1354" x2="203.3514" y2="663.1354" gradientTransform="matrix(1366 0 0 -768 -277095 510056)">
	<stop  offset="0" style="stop-color:#55BBFA"/>
	<stop  offset="1" style="stop-color:#FFE4E1"/>
</linearGradient>
<rect class="st1" width="1366" height="768"/>
<path class="st2" d="M5,5h2v1H6v1h1v1H5V5z M4,3h4v1h1v5H8v1H4V9H3V4h1v5h4V4H4V3z M11,4h1v2h1V4h1v2h-1v1h1v2h-1V7h-1v2h-1V7h1V6
	h-1V4z M15,4h5v5h-1V5h-1v4h-1V5h-1v4h-1V4z M21,4h3l-1,1h-1v3h1V5l1-1v5h-2v2h-1V4z M25,2h1v6h1v1h-2V2z M28,4h3l-1,1h-1v1h1V5l1-1
	v3h-2v1h2v1h-3V4z M32,8h1v1h-1V8z M34,4h3v1h-2v3h2v1h-3V4z M38,4h3v5h-3l1-1h1V5h-1v3l-1,1V4z M42,4h5v5h-1V5h-1v4h-1V5h-1v4h-1V4
	z"/>
<text transform="matrix(1 0 0 1 4 762)" class="st2 st3 st4">© xmple.com</text>
<a xlink:href="https://www.xmple.com" >
	<text transform="matrix(1 0 0 1 1245.5605 22)" class="st2 st3 st4">xmple.com</text>
</a>
</svg>
